External Loads File
version=1
nRows=77
nColumns=13
Range=5.000000e-03-10 seconds
endheader
time 	forceRightX 	forceRightY 	forceRightZ 	pointRightX 	pointRightY 	pointRightZ 	forceLeftX 	forceLeftY 	forceLeftZ 	pointLeftX 	pointLeftY 	pointLeftZ 		
5.005000 37.384278 -37.611974 -0.000000 0.065313 0.245327 -0.121683 -255.390376 505.421724 -0.000000 0.327226 0.369526 -0.367696
5.010000 31.331042 -42.003229 -0.000000 0.064691 0.254445 -0.121602 -266.815858 535.791803 -0.000000 0.328605 0.358747 -0.367761
5.015000 25.042660 -44.855867 -0.000000 0.064765 0.263774 -0.121310 -274.568384 560.167588 -0.000000 0.329542 0.347914 -0.367661
5.020000 18.548680 -46.196241 -0.000000 0.066377 0.273261 -0.121090 -279.250929 578.640364 -0.000000 0.329894 0.337029 -0.366177
5.025000 11.855830 -46.187255 -0.000000 0.067751 0.282920 -0.121257 -279.664656 592.741585 -0.000000 0.330122 0.326102 -0.367283
5.030000 5.252246 -45.025725 -0.000000 0.068837 0.292578 -0.121135 -276.960751 603.197580 -0.000000 0.329597 0.315160 -0.367310
5.035000 -1.054130 -43.077419 -0.000000 0.068776 0.302411 -0.122739 -271.064745 611.436734 -0.000000 0.328679 0.304228 -0.367341
5.040000 -6.828642 -40.781748 -0.000000 0.071142 0.312323 -0.122954 -262.627523 618.442391 -0.000000 0.327218 0.293337 -0.367323
5.045000 -11.942438 -38.624699 -0.000000 0.074173 0.322231 -0.123118 -251.257939 625.312639 -0.000000 0.325152 0.282602 -0.367888
5.050000 -16.350549 -37.111881 -0.000000 0.077694 0.332192 -0.123332 -236.281703 632.760453 -0.000000 0.322451 0.272033 -0.367181
5.055000 -20.133801 -36.734619 -0.000000 0.081615 0.342233 -0.123478 -217.265400 640.933111 -0.000000 0.319038 0.261667 -0.367084
5.060000 -23.413397 -37.984180 -0.000000 0.086056 0.352200 -0.123703 -196.341806 648.849245 -0.000000 0.317008 0.251546 -0.364164
5.065000 -26.915093 -40.912887 -0.000000 0.090905 0.362157 -0.124028 -168.101639 657.653946 -0.000000 0.310490 0.241718 -0.366826
5.070000 -30.809094 -45.716865 -0.000000 0.096538 0.372295 -0.124179 -137.838977 665.165316 -0.000000 0.305519 0.232146 -0.366822
5.075000 -35.384620 -52.256356 -0.000000 0.102409 0.381692 -0.124540 -107.087843 670.754097 -0.000000 0.299999 0.222920 -0.366688
5.080000 -40.971536 -60.091423 -0.000000 0.108715 0.391217 -0.124913 -74.728930 674.395491 -0.000000 0.294154 0.213963 -0.366434
5.085000 -47.577261 -68.811318 -0.000000 0.115532 0.400470 -0.125325 -41.895998 675.765307 -0.000000 0.287786 0.205200 -0.366343
5.090000 -55.127625 -77.954924 -0.000000 0.123063 0.409421 -0.125564 -8.910552 674.814179 -0.000000 0.280929 0.196544 -0.366306
5.095000 -63.131451 -87.286858 -0.000000 0.130393 0.417859 -0.126107 21.531559 671.621553 -0.000000 0.273578 0.187938 -0.366215
5.100000 -71.294665 -96.391104 -0.000000 0.138073 0.425947 -0.126651 49.614779 666.513539 -0.000000 0.266054 0.179372 -0.365955
5.105000 -79.283141 -104.878483 -0.000000 0.146163 0.433670 -0.127184 75.295396 659.795853 -0.000000 0.258155 0.171119 -0.365824
5.110000 -86.923863 -112.249200 -0.000000 0.155314 0.440777 -0.126801 99.403411 651.608521 -0.000000 0.249954 0.163447 -0.365737
5.115000 -93.254064 -118.594029 -0.000000 0.163686 0.447209 -0.127221 118.329938 642.728191 -0.000000 0.241473 0.156623 -0.365609
5.120000 -98.290010 -123.220308 -0.000000 0.172055 0.453079 -0.127582 134.449080 633.004971 -0.000000 0.232666 0.150906 -0.365466
5.125000 -101.853578 -125.590589 -0.000000 0.180600 0.458295 -0.128566 148.673254 622.226490 -0.000000 0.223624 0.146402 -0.365321
5.130000 -103.862294 -125.192538 -0.000000 0.189682 0.462784 -0.128833 162.135311 609.906435 -0.000000 0.214480 0.142994 -0.365288
5.135000 -104.016835 -121.896760 -0.000000 0.198651 0.466598 -0.129183 174.615274 595.716402 -0.000000 0.205028 0.140563 -0.365079
5.140000 -102.438895 -115.504009 -0.000000 0.208214 0.469757 -0.129520 187.504190 578.659164 -0.000000 0.195406 0.138980 -0.364941
5.145000 -98.821826 -106.526888 -0.000000 0.217521 0.472114 -0.129759 199.301150 558.360275 -0.000000 0.185649 0.138118 -0.364755
5.150000 -93.329261 -95.420102 -0.000000 0.226861 0.473891 -0.129489 209.719185 533.941225 -0.000000 0.176141 0.137903 -0.364451
5.155000 -86.355004 -82.664829 -0.000000 0.236045 0.475038 -0.129671 218.617505 504.374473 -0.000000 0.166554 0.138326 -0.364241
5.160000 -78.215295 -68.931874 -0.000000 0.244623 0.475436 -0.129940 224.371281 469.411395 -0.000000 0.157196 0.139374 -0.364050
5.165000 -69.635514 -54.408484 -0.000000 0.253242 0.475238 -0.129920 227.193954 428.402123 -0.000000 0.148106 0.141034 -0.363826
5.170000 -61.155325 -39.285475 -0.000000 0.261524 0.474427 -0.129769 225.894039 381.926743 -0.000000 0.139447 0.143370 -0.363623
5.175000 -53.403745 -23.357530 -0.000000 0.269419 0.472784 -0.129440 220.272808 330.799864 -0.000000 0.131241 0.146447 -0.363385
5.180000 -46.892879 -6.212479 -0.000000 0.276906 0.470431 -0.129134 210.363477 276.467911 -0.000000 0.123487 0.150299 -0.363180
5.185000 -41.990162 12.709222 -0.000000 0.283972 0.467889 -0.128739 196.474320 220.971996 -0.000000 0.116154 0.154958 -0.362812
5.190000 -38.857588 34.183883 -0.000000 0.290293 0.463106 -0.128561 179.810582 166.155141 -0.000000 0.109316 0.160454 -0.362903
5.195000 -37.607684 58.861939 -0.000000 0.296213 0.458790 -0.127875 160.950851 114.686304 -0.000000 0.102744 0.166575 -0.362452
5.200000 -38.269523 87.554848 -0.000000 0.301469 0.453681 -0.127322 141.285722 68.305654 -0.000000 0.096446 0.173128 -0.361850
5.205000 -41.061576 121.014786 -0.000000 0.306049 0.448400 -0.126753 121.832000 28.645866 -0.000000 0.090473 0.180002 -0.361255
5.210000 -46.327758 160.009577 -0.000000 0.309666 0.442463 -0.126211 103.487718 -3.349456 -0.000000 0.085078 0.187086 -0.360631
5.215000 -53.896178 205.330461 -0.000000 0.312656 0.434679 -0.125451 86.775385 -27.638317 -0.000000 0.080259 0.194280 -0.359871
5.220000 -65.168994 256.921887 -0.000000 0.315479 0.428244 -0.125253 72.129163 -44.002920 -0.000000 0.075832 0.201734 -0.359467
5.225000 -79.463353 314.510005 -0.000000 0.318007 0.420540 -0.124788 59.651987 -53.696320 -0.000000 0.071924 0.209532 -0.359292
5.230000 -96.166175 376.821281 -0.000000 0.320823 0.412148 -0.124555 49.443762 -58.056764 -0.000000 0.068158 0.217684 -0.359851
5.235000 -114.909007 441.611050 -0.000000 0.323157 0.403002 -0.124315 41.677523 -58.626342 -0.000000 0.064828 0.226196 -0.359871
5.240000 -133.218789 506.481760 -0.000000 0.325876 0.393190 -0.123849 36.121403 -57.158075 -0.000000 0.061846 0.235063 -0.359900
5.245000 -149.138753 568.515697 -0.000000 0.328550 0.382698 -0.123841 32.434689 -54.995149 -0.000000 0.059232 0.244185 -0.359980
5.250000 -161.723448 624.535352 -0.000000 0.330586 0.371992 -0.123570 30.134643 -52.898461 -0.000000 0.057008 0.253528 -0.360037
5.255000 -169.717883 671.956119 -0.000000 0.332252 0.361503 -0.123380 28.594468 -51.045809 -0.000000 0.054771 0.263076 -0.357774
5.260000 -172.993823 708.858005 -0.000000 0.333677 0.350932 -0.123079 27.380973 -49.106727 -0.000000 0.054122 0.272816 -0.360321
5.265000 -169.872325 734.796372 -0.000000 0.334430 0.340106 -0.123038 26.186874 -46.632240 -0.000000 0.053376 0.282741 -0.360412
5.270000 -161.526115 749.592327 -0.000000 0.334979 0.329295 -0.122609 25.154691 -43.151345 -0.000000 0.053064 0.292854 -0.360593
5.275000 -149.441916 753.817788 -0.000000 0.335278 0.318720 -0.122435 24.603068 -38.482726 -0.000000 0.053173 0.303126 -0.360737
5.280000 -134.289099 748.808179 -0.000000 0.335327 0.308257 -0.122757 24.835894 -32.818097 -0.000000 0.053788 0.313530 -0.360921
5.285000 -116.329382 736.261034 -0.000000 0.334910 0.297693 -0.122724 26.028379 -26.594143 -0.000000 0.054970 0.324027 -0.360944
5.290000 -96.797708 717.797645 -0.000000 0.333926 0.287200 -0.122514 28.185998 -20.289846 -0.000000 0.056532 0.334562 -0.361019
5.295000 -76.008407 695.169283 -0.000000 0.332056 0.276708 -0.122310 31.061117 -14.376550 -0.000000 0.058571 0.345064 -0.361320
5.300000 -54.518186 669.950187 -0.000000 0.329730 0.266147 -0.122576 34.252544 -9.212837 -0.000000 0.061269 0.355460 -0.361180
5.305000 -33.374583 643.474790 -0.000000 0.326647 0.255986 -0.122228 37.281093 -5.028043 -0.000000 0.064765 0.365676 -0.361305
5.310000 -12.320193 616.902505 -0.000000 0.323100 0.245856 -0.122280 39.661466 -2.099114 -0.000000 0.068991 0.375631 -0.361455
5.315000 7.708864 591.026731 -0.000000 0.319006 0.236103 -0.122282 40.963352 -0.709658 -0.000000 0.073750 0.385263 -0.361756
5.320000 27.386006 566.401918 -0.000000 0.314282 0.226733 -0.122181 40.760592 -1.384008 -0.000000 0.079580 0.394524 -0.361825
5.325000 46.102927 543.440774 -0.000000 0.309043 0.217594 -0.122079 38.604614 -4.685347 -0.000000 0.085930 0.403377 -0.362085
5.330000 64.200969 522.474366 -0.000000 0.303095 0.208671 -0.121884 34.008410 -11.272620 -0.000000 0.093050 0.411796 -0.362359
5.335000 80.291484 504.030653 -0.000000 0.296873 0.200138 -0.122109 26.507081 -21.599829 -0.000000 0.100541 0.419776 -0.362638
5.340000 95.511116 488.310977 -0.000000 0.290120 0.192029 -0.121887 15.618977 -36.064272 -0.000000 0.109006 0.427318 -0.362519
5.345000 108.589605 475.847928 -0.000000 0.283245 0.184426 -0.121064 1.127552 -54.610789 -0.000000 0.117767 0.434432 -0.362342
5.350000 121.475829 466.406089 -0.000000 0.275240 0.176964 -0.121239 -17.218777 -76.799306 -0.000000 0.126860 0.441127 -0.362164
5.355000 133.203354 460.214113 -0.000000 0.267049 0.170504 -0.121504 -39.004351 -101.613182 -0.000000 0.136625 0.447414 -0.362242
5.360000 143.646646 457.124228 -0.000000 0.258538 0.164348 -0.121495 -63.271364 -127.582764 -0.000000 0.146114 0.453289 -0.362116
5.365000 153.379940 456.447592 -0.000000 0.249801 0.158889 -0.121250 -88.683944 -152.730460 -0.000000 0.155675 0.458731 -0.361988
5.370000 162.704631 457.234906 -0.000000 0.240802 0.153858 -0.120800 -113.528377 -174.824549 -0.000000 0.165126 0.463707 -0.362048
5.375000 176.127007 456.677172 -0.000000 0.228480 0.150073 -0.117647 -137.769140 -190.424217 -0.000000 0.174626 0.468178 -0.361775
5.380000 185.055396 456.699843 -0.000000 0.219076 0.145748 -0.117274 -156.188041 -200.296528 -0.000000 0.183969 0.472105 -0.361782
5.385000 193.515376 454.564919 -0.000000 0.209668 0.142962 -0.117099 -169.057611 -202.649493 -0.000000 0.193411 0.475451 -0.362104
